<svg width="48" height="48" viewBox="0 0 48 48" fill="none" xmlns="http://www.w3.org/2000/svg">
<rect width="48" height="48" rx="24" fill="white" fill-opacity="0.1"/>
<path d="M30.1666 26.3802C29.4949 26.2357 28.9635 26.5475 28.493 26.8199C28.0111 27.1006 27.0949 27.8438 26.5697 27.6536C23.8808 26.5465 21.3519 24.193 20.2571 21.4934C20.0642 20.957 20.804 20.0349 21.0826 19.5474C21.3529 19.0754 21.6583 18.539 21.519 17.8623C21.3932 17.2541 19.765 15.1824 19.1892 14.6158C18.8095 14.2416 18.4205 14.0358 18.0212 14.0025C16.52 13.938 14.8433 15.9412 14.5492 16.4204C13.8125 17.4423 13.8166 18.802 14.5616 20.4507C16.3569 24.8791 23.1472 31.5622 27.5922 33.4251C28.4125 33.8087 29.1626 34.001 29.8364 34.001C30.4957 34.001 31.0828 33.817 31.5874 33.4521C31.9681 33.2328 34.0534 31.4728 33.9987 29.9312C33.9657 29.5383 33.7604 29.1453 33.391 28.7649C32.8286 28.1838 30.7702 26.507 30.1666 26.3802Z" fill="white" fill-opacity="0.9"/>
</svg>
