<svg width="48" height="48" viewBox="0 0 48 48" fill="none" xmlns="http://www.w3.org/2000/svg">
<rect width="48" height="48" rx="24" fill="white" fill-opacity="0.1"/>
<path fill-rule="evenodd" clip-rule="evenodd" d="M28.9394 15C30.2804 15 31.5704 15.53 32.5194 16.481C33.4694 17.43 34.0004 18.71 34.0004 20.05V27.95C34.0004 30.74 31.7304 33 28.9394 33H19.0604C16.2694 33 14.0004 30.74 14.0004 27.95V20.05C14.0004 17.26 16.2594 15 19.0604 15H28.9394ZM30.5304 21.5403L30.6104 21.4603C30.8494 21.1703 30.8494 20.7503 30.5994 20.4603C30.4604 20.3113 30.2694 20.2203 30.0704 20.2003C29.8604 20.1893 29.6604 20.2603 29.5094 20.4003L25.0004 24.0003C24.4204 24.4813 23.5894 24.4813 23.0004 24.0003L18.5004 20.4003C18.1894 20.1703 17.7594 20.2003 17.5004 20.4703C17.2304 20.7403 17.2004 21.1703 17.4294 21.4703L17.5604 21.6003L22.1104 25.1503C22.6704 25.5903 23.3494 25.8303 24.0604 25.8303C24.7694 25.8303 25.4604 25.5903 26.0194 25.1503L30.5304 21.5403Z" fill="white" fill-opacity="0.9"/>
</svg>
